<svg xmlns="http://www.w3.org/2000/svg" viewBox="0 0 64 64" role="img" aria-label="Aegis shield favicon">
  <defs>
    <linearGradient id="g" x1="0" y1="0" x2="0" y2="1">
      <stop offset="0" stop-color="#34d399"/>
      <stop offset="1" stop-color="#10b981"/>
    </linearGradient>
  </defs>
  <path
    d="M32 6c8 6 16 7 22 8v17c0 15-9.5 24.5-22 27C19.5 55.5 10 46 10 31V14c6-1 14-2 22-8Z"
    fill="url(#g)"
  />
  <path
    d="M32 14c6 4.4 12 5.2 17 6v11.2c0 11.6-7.4 18.9-17 21-9.6-2.1-17-9.4-17-21V20c5-.8 11-1.6 17-6Z"
    fill="#09090b"
    opacity="0.35"
  />
  <path
    d="M32 18v30"
    stroke="#a7f3d0"
    stroke-width="3"
    stroke-linecap="round"
    opacity="0.9"
  />
  <path
    d="M22 28h20"
    stroke="#a7f3d0"
    stroke-width="3"
    stroke-linecap="round"
    opacity="0.9"
  />
</svg>

